<svg viewBox="0 0 32 32" xmlns="http://www.w3.org/2000/svg">
  <!-- White rounded background -->
  <rect width="32" height="32" rx="8" fill="white"/>
  <!-- GitHub Octocat -->
  <path d="M16 4C10.48 4 6 8.48 6 14c0 4.41 2.87 8.16 6.84 9.49.5.09.68-.21.68-.47 0-.23-.01-1.02-.01-1.86-2.51.46-3.16-.61-3.36-1.18-.11-.29-.6-1.18-1.03-1.41-.35-.19-.85-.66-.01-.67.79-.01 1.35.73 1.54 1.03.9 1.52 2.34 1.09 2.91.83.09-.65.35-1.09.64-1.34-2.22-.25-4.55-1.11-4.55-4.94 0-1.09.39-1.99 1.03-2.69-.1-.25-.45-1.27.1-2.65 0 0 .84-.27 2.75 1.03.8-.22 1.65-.34 2.5-.34.85 0 1.7.11 2.5.34 1.91-1.31 2.75-1.03 2.75-1.03.55 1.38.2 2.4.1 2.65.64.7 1.03 1.59 1.03 2.69 0 3.84-2.34 4.69-4.56 4.94.36.31.68.92.68 1.85 0 1.34-.01 2.42-.01 2.75 0 .27.18.58.69.48A10.02 10.02 0 0026 14c0-5.52-4.48-10-10-10z" fill="black"/>
  <!-- Map icon overlay (bottom-right) -->
  <g transform="translate(18, 18)">
    <rect width="14" height="14" rx="4" fill="black" stroke="white" stroke-width="1"/>
    <path d="M4 11l-2-1V4l2 1m0 6l3-1.5m-3 1.5V5m3 4.5l2 1V5l-2-1m2 6V5m0 0l-3 1.5" stroke="white" stroke-width="1" stroke-linecap="round" stroke-linejoin="round" fill="none"/>
  </g>
</svg>
